<svg version="1.2" xmlns="http://www.w3.org/2000/svg" viewBox="0 0 1556 400" width="1556" height="400">
	<title>AVAV_BIG copy-svg</title>
	<defs>
		<clipPath clipPathUnits="userSpaceOnUse" id="cp1">
			<path d="m-39.38-530.52h1735.22v1735.91h-1735.22z"/>
		</clipPath>
	</defs>
	<style>
		.s0 { fill: #000000 } 
	</style>
	<g id="Clip-Path: Clip-Path: Page 1" clip-path="url(#cp1)">
		<g id="Clip-Path: Page 1">
			<g id="Page 1">
				<path id="Path 1" fill-rule="evenodd" class="s0" d="m1333.4 0.5c-57.8 0-71.5 39.4-81.1 57.5l-99.6 187.2c-10.4 20-17 28.5-26.3 38.1-23.6 24.3-48.3 24.1-78.5 24.1h-39.7v-306.9h-214.7v398.9h318.5c119.3 0 136.3-33.5 182-86.5 7.5-8.8 261.8-312.4 261.8-312.4zm-1071 86.7c-7.7 8.7-262.1 312.2-262.1 312.2h222.4c58 0 71.5-39.2 81.2-57.3l18.4-34.7h195v-92h-146l32.1-60.5c10.4-20 17.1-28.6 26.3-38.1 23.8-24.3 48.4-24.2 78.5-24.2h39.7v306.8h214.8v-398.9h-318.3c-119.4 0-136.6 33.6-182 86.7z"/>
			</g>
		</g>
	</g>
</svg>